<svg height="100%" width="100%" id="svg" viewBox="0 0 1440 400" xmlns="http://www.w3.org/2000/svg" class="transition duration-300 ease-in-out delay-150">
	<defs>
		<linearGradient id="gradient">
			<stop offset="5%" stop-color="#556ee666">
			</stop>
			<stop offset="95%" stop-color="#8ed1fc66">
			</stop>
		</linearGradient>
	</defs>
	<path d="M 0,400 C 0,400 0,100 0,100 C 79.498454139471,97.88801099278598 158.996908278942,95.77602198557197 221,105 C 283.003091721058,114.22397801442803 327.5108210237031,134.78392305049812 394,124 C 460.4891789762969,113.2160769495019 548.9598076262454,71.0882858124356 625,67 C 701.0401923737546,62.9117141875644 764.6499484713156,96.86293369975952 817,101 C 869.3500515286844,105.13706630024048 910.4403984884918,79.45997938852628 990,68 C 1069.5596015115082,56.54002061147372 1187.5884575747166,59.29714874613535 1269,67 C 1350.4115424252834,74.70285125386465 1395.2057712126416,87.35142562693233 1440,100 C 1440,100 1440,400 1440,400 Z" stroke="none" stroke-width="0" fill="url(#gradient)" class="transition-all duration-300 ease-in-out delay-150">
	</path>
	<defs>
		<linearGradient id="gradient">
			<stop offset="5%" stop-color="#556ee688">
			</stop>
			<stop offset="95%" stop-color="#8ed1fc88">
			</stop>
		</linearGradient>
	</defs>
	<path d="M 0,400 C 0,400 0,200 0,200 C 72.68636207488836,207.30264513912743 145.37272414977673,214.6052902782549 222,221 C 298.62727585022327,227.3947097217451 379.1954654757815,232.88148402610787 434,221 C 488.8045345242185,209.11851597389213 517.8454139470972,179.86877361731365 586,178 C 654.1545860529028,176.13122638268635 761.4228787358295,201.64342150463756 847,217 C 932.5771212641705,232.35657849536244 996.4630711095842,237.55754036413606 1059,231 C 1121.5369288904158,224.44245963586394 1182.724836825833,206.12641703881826 1246,199 C 1309.275163174167,191.87358296118174 1374.6375815870833,195.93679148059087 1440,200 C 1440,200 1440,400 1440,400 Z" stroke="none" stroke-width="0" fill="url(#gradient)" class="transition-all duration-300 ease-in-out delay-150">
	</path>
	<defs>
		<linearGradient id="gradient">
			<stop offset="5%" stop-color="#556ee6ff">
			</stop>
			<stop offset="95%" stop-color="#8ed1fcff">
			</stop>
		</linearGradient>
	</defs>
	<path d="M 0,400 C 0,400 0,300 0,300 C 52.67811748540021,307.9058742700103 105.35623497080041,315.81174854002063 183,310 C 260.6437650291996,304.18825145997937 363.25317760219855,284.65888010992785 444,283 C 524.7468223978015,281.34111989007215 583.6310546204054,297.55273102026797 646,314 C 708.3689453795946,330.44726897973203 774.2226039161799,347.13019580900027 833,334 C 891.7773960838201,320.86980419099973 943.4785297148746,277.9264857437307 1020,278 C 1096.5214702851254,278.0735142562693 1197.8632772243213,321.16386121607695 1272,332 C 1346.1367227756787,342.83613878392305 1393.0683613878393,321.4180693919615 1440,300 C 1440,300 1440,400 1440,400 Z" stroke="none" stroke-width="0" fill="url(#gradient)" class="transition-all duration-300 ease-in-out delay-150">
	</path>
</svg>
